<svg xmlns="http://www.w3.org/2000/svg" width="640" height="400" viewBox="0 0 640 400">
<!-- Illustration originale Zando Prix — riz-detail. Propriété du projet, aucune licence tierce. -->
<defs>
  <radialGradient id="fond" cx="50%" cy="40%" r="80%"><stop offset="0" stop-color="#F3FAF1"/><stop offset="1" stop-color="#CBEAC4"/></radialGradient>
  <linearGradient id="plateau" x1="0" y1="0" x2="0" y2="1"><stop offset="0" stop-color="#E4C48A"/><stop offset="1" stop-color="#C79A55"/></linearGradient>
  <linearGradient id="sac" x1="0" y1="0" x2="1" y2="1"><stop offset="0" stop-color="#FCF9F2"/><stop offset="1" stop-color="#D8CEB8"/></linearGradient>
  <linearGradient id="sac-sombre" x1="0" y1="0" x2="1" y2="1"><stop offset="0" stop-color="#3C5A74"/><stop offset="1" stop-color="#1E3242"/></linearGradient>
  <linearGradient id="cuvette" x1="0" y1="0" x2="0" y2="1"><stop offset="0" stop-color="#3D86C8"/><stop offset="1" stop-color="#28598D"/></linearGradient>
  <linearGradient id="cuvette-int" x1="0" y1="0" x2="0" y2="1"><stop offset="0" stop-color="#FFFFFF"/><stop offset="1" stop-color="#E1E6E3"/></linearGradient>
  <linearGradient id="riz" x1="0" y1="0" x2="0" y2="1"><stop offset="0" stop-color="#FFFEF9"/><stop offset="1" stop-color="#EAE1CB"/></linearGradient>
  <linearGradient id="farine" x1="0" y1="0" x2="0" y2="1"><stop offset="0" stop-color="#FFFFFF"/><stop offset="1" stop-color="#E9E5DB"/></linearGradient>
  <linearGradient id="haricot" x1="0" y1="0" x2="0" y2="1"><stop offset="0" stop-color="#A5302A"/><stop offset="1" stop-color="#6E1A16"/></linearGradient>
  <linearGradient id="metal" x1="0" y1="0" x2="1" y2="0"><stop offset="0" stop-color="#B7BEC3"/><stop offset=".45" stop-color="#F1F3F4"/><stop offset="1" stop-color="#A9B1B6"/></linearGradient>
  <linearGradient id="carton" x1="0" y1="0" x2="0" y2="1"><stop offset="0" stop-color="#DDAE70"/><stop offset="1" stop-color="#B7844A"/></linearGradient>
  <linearGradient id="poisson" x1="0" y1="0" x2="0" y2="1"><stop offset="0" stop-color="#7F97A9"/><stop offset=".55" stop-color="#C5D3DC"/><stop offset="1" stop-color="#EEF3F6"/></linearGradient>
  <linearGradient id="huile" x1="0" y1="0" x2="1" y2="0"><stop offset="0" stop-color="#E7A51B"/><stop offset=".5" stop-color="#F7CF55"/><stop offset="1" stop-color="#DB9612"/></linearGradient>
  <linearGradient id="oeuf" x1="0" y1="0" x2="1" y2="1"><stop offset="0" stop-color="#F9E9D2"/><stop offset="1" stop-color="#DDB68A"/></linearGradient>
  <linearGradient id="feuille" x1="0" y1="0" x2="0" y2="1"><stop offset="0" stop-color="#7DBE55"/><stop offset="1" stop-color="#3E7A2C"/></linearGradient>
  <linearGradient id="feuille-sombre" x1="0" y1="0" x2="0" y2="1"><stop offset="0" stop-color="#5E9E3E"/><stop offset="1" stop-color="#2F6322"/></linearGradient>
  <linearGradient id="manioc" x1="0" y1="0" x2="0" y2="1"><stop offset="0" stop-color="#F6F1E6"/><stop offset="1" stop-color="#DCD2BE"/></linearGradient>
  <linearGradient id="bol" x1="0" y1="0" x2="0" y2="1"><stop offset="0" stop-color="#FFFFFF"/><stop offset="1" stop-color="#D9E3DC"/></linearGradient>
  <linearGradient id="bois" x1="0" y1="0" x2="0" y2="1"><stop offset="0" stop-color="#C99A5B"/><stop offset="1" stop-color="#9C6E36"/></linearGradient>
  <filter id="ombre" x="-30%" y="-30%" width="160%" height="180%"><feDropShadow dx="0" dy="12" stdDeviation="12" flood-color="#041B12" flood-opacity="0.20"/></filter>
  <filter id="ombre-douce" x="-40%" y="-40%" width="180%" height="200%"><feDropShadow dx="0" dy="5" stdDeviation="5" flood-color="#041B12" flood-opacity="0.18"/></filter>
</defs>
<rect width="640" height="400" fill="url(#fond)"/>
<circle cx="92" cy="70" r="46" fill="#FFFFFF" opacity="0.45"/><circle cx="560" cy="330" r="70" fill="#FFFFFF" opacity="0.3"/>
<ellipse cx="300" cy="332" rx="220" ry="24" fill="#041B12" opacity="0.12"/>
<g filter="url(#ombre)"><path d="M116 236 C 156 254.0, 368 254.0, 408 236 L 376 314 C 322 340, 202 340, 148 314 Z" fill="url(#cuvette)"/></g><ellipse cx="262" cy="236" rx="146" ry="30" fill="url(#cuvette-int)" stroke="#2F6DAE" stroke-width="9"/>
<path d="M136 238 C 174 182.2, 212 148, 262 148 C 312 148, 350 182.2, 388 238 C 322 260, 202 260, 136 238 Z" fill="url(#riz)"/>
<ellipse cx="237.5" cy="162.6" rx="4.4" ry="2" transform="rotate(12 237.5 162.6)" fill="#F6F0E2"/><ellipse cx="273.7" cy="175.2" rx="4.4" ry="2" transform="rotate(178 273.7 175.2)" fill="#FFFFFF"/><ellipse cx="196.4" cy="198.4" rx="4.4" ry="2" transform="rotate(50 196.4 198.4)" fill="#FFFFFF"/><ellipse cx="295.2" cy="172.5" rx="4.4" ry="2" transform="rotate(49 295.2 172.5)" fill="#FFFFFF"/><ellipse cx="217.1" cy="206.9" rx="4.4" ry="2" transform="rotate(132 217.1 206.9)" fill="#F6F0E2"/><ellipse cx="302.5" cy="195.6" rx="4.4" ry="2" transform="rotate(32 302.5 195.6)" fill="#F6F0E2"/><ellipse cx="210.1" cy="236.8" rx="4.4" ry="2" transform="rotate(147 210.1 236.8)" fill="#E4D9C2"/><ellipse cx="212.9" cy="214.3" rx="4.4" ry="2" transform="rotate(56 212.9 214.3)" fill="#E4D9C2"/><ellipse cx="190.0" cy="187.8" rx="4.4" ry="2" transform="rotate(52 190.0 187.8)" fill="#F6F0E2"/><ellipse cx="210.2" cy="198.3" rx="4.4" ry="2" transform="rotate(85 210.2 198.3)" fill="#F6F0E2"/><ellipse cx="178.2" cy="211.3" rx="4.4" ry="2" transform="rotate(12 178.2 211.3)" fill="#FFFFFF"/><ellipse cx="293.9" cy="189.5" rx="4.4" ry="2" transform="rotate(33 293.9 189.5)" fill="#F6F0E2"/><ellipse cx="320.3" cy="178.1" rx="4.4" ry="2" transform="rotate(101 320.3 178.1)" fill="#F6F0E2"/><ellipse cx="198.0" cy="219.9" rx="4.4" ry="2" transform="rotate(111 198.0 219.9)" fill="#FFFFFF"/><ellipse cx="172.8" cy="235.9" rx="4.4" ry="2" transform="rotate(52 172.8 235.9)" fill="#FFFFFF"/><ellipse cx="355.4" cy="237.7" rx="4.4" ry="2" transform="rotate(132 355.4 237.7)" fill="#F6F0E2"/><ellipse cx="372.0" cy="220.9" rx="4.4" ry="2" transform="rotate(74 372.0 220.9)" fill="#E4D9C2"/><ellipse cx="289.8" cy="232.0" rx="4.4" ry="2" transform="rotate(53 289.8 232.0)" fill="#F6F0E2"/><ellipse cx="234.1" cy="238.4" rx="4.4" ry="2" transform="rotate(60 234.1 238.4)" fill="#FFFFFF"/><ellipse cx="229.7" cy="190.7" rx="4.4" ry="2" transform="rotate(66 229.7 190.7)" fill="#F6F0E2"/><ellipse cx="247.7" cy="167.5" rx="4.4" ry="2" transform="rotate(165 247.7 167.5)" fill="#FFFFFF"/><ellipse cx="183.8" cy="211.6" rx="4.4" ry="2" transform="rotate(27 183.8 211.6)" fill="#FFFFFF"/><ellipse cx="272.9" cy="202.8" rx="4.4" ry="2" transform="rotate(58 272.9 202.8)" fill="#FFFFFF"/><ellipse cx="172.9" cy="197.7" rx="4.4" ry="2" transform="rotate(139 172.9 197.7)" fill="#F6F0E2"/><ellipse cx="297.8" cy="166.8" rx="4.4" ry="2" transform="rotate(36 297.8 166.8)" fill="#F6F0E2"/><ellipse cx="243.4" cy="171.4" rx="4.4" ry="2" transform="rotate(160 243.4 171.4)" fill="#FFFFFF"/><ellipse cx="156.1" cy="235.2" rx="4.4" ry="2" transform="rotate(102 156.1 235.2)" fill="#E4D9C2"/><ellipse cx="239.1" cy="232.7" rx="4.4" ry="2" transform="rotate(118 239.1 232.7)" fill="#E4D9C2"/><ellipse cx="319.8" cy="194.5" rx="4.4" ry="2" transform="rotate(17 319.8 194.5)" fill="#FFFFFF"/><ellipse cx="213.9" cy="192.3" rx="4.4" ry="2" transform="rotate(162 213.9 192.3)" fill="#F6F0E2"/><ellipse cx="336.3" cy="197.6" rx="4.4" ry="2" transform="rotate(118 336.3 197.6)" fill="#E4D9C2"/><ellipse cx="236.6" cy="194.7" rx="4.4" ry="2" transform="rotate(155 236.6 194.7)" fill="#F6F0E2"/><ellipse cx="154.5" cy="232.5" rx="4.4" ry="2" transform="rotate(23 154.5 232.5)" fill="#F6F0E2"/><ellipse cx="183.5" cy="207.7" rx="4.4" ry="2" transform="rotate(102 183.5 207.7)" fill="#E4D9C2"/><ellipse cx="239.3" cy="184.7" rx="4.4" ry="2" transform="rotate(144 239.3 184.7)" fill="#FFFFFF"/><ellipse cx="335.1" cy="221.6" rx="4.4" ry="2" transform="rotate(158 335.1 221.6)" fill="#E4D9C2"/><ellipse cx="156.6" cy="237.4" rx="4.4" ry="2" transform="rotate(29 156.6 237.4)" fill="#E4D9C2"/><ellipse cx="222.0" cy="231.8" rx="4.4" ry="2" transform="rotate(139 222.0 231.8)" fill="#F6F0E2"/><ellipse cx="162.6" cy="213.4" rx="4.4" ry="2" transform="rotate(20 162.6 213.4)" fill="#E4D9C2"/><ellipse cx="348.1" cy="205.2" rx="4.4" ry="2" transform="rotate(25 348.1 205.2)" fill="#F6F0E2"/><ellipse cx="162.8" cy="230.6" rx="4.4" ry="2" transform="rotate(163 162.8 230.6)" fill="#F6F0E2"/><ellipse cx="341.7" cy="225.8" rx="4.4" ry="2" transform="rotate(15 341.7 225.8)" fill="#E4D9C2"/><ellipse cx="251.1" cy="167.3" rx="4.4" ry="2" transform="rotate(176 251.1 167.3)" fill="#F6F0E2"/><ellipse cx="199.2" cy="193.7" rx="4.4" ry="2" transform="rotate(174 199.2 193.7)" fill="#FFFFFF"/><ellipse cx="162.2" cy="234.1" rx="4.4" ry="2" transform="rotate(144 162.2 234.1)" fill="#F6F0E2"/><ellipse cx="264.9" cy="188.8" rx="4.4" ry="2" transform="rotate(154 264.9 188.8)" fill="#F6F0E2"/><ellipse cx="159.8" cy="230.8" rx="4.4" ry="2" transform="rotate(35 159.8 230.8)" fill="#F6F0E2"/><ellipse cx="171.9" cy="200.5" rx="4.4" ry="2" transform="rotate(67 171.9 200.5)" fill="#FFFFFF"/><ellipse cx="260.6" cy="179.8" rx="4.4" ry="2" transform="rotate(98 260.6 179.8)" fill="#FFFFFF"/><ellipse cx="217.6" cy="199.2" rx="4.4" ry="2" transform="rotate(88 217.6 199.2)" fill="#E4D9C2"/><ellipse cx="285.8" cy="197.5" rx="4.4" ry="2" transform="rotate(94 285.8 197.5)" fill="#F6F0E2"/><ellipse cx="324.9" cy="240.7" rx="4.4" ry="2" transform="rotate(113 324.9 240.7)" fill="#E4D9C2"/><ellipse cx="156.5" cy="233.3" rx="4.4" ry="2" transform="rotate(98 156.5 233.3)" fill="#F6F0E2"/><ellipse cx="328.7" cy="201.4" rx="4.4" ry="2" transform="rotate(169 328.7 201.4)" fill="#E4D9C2"/><ellipse cx="329.7" cy="205.6" rx="4.4" ry="2" transform="rotate(80 329.7 205.6)" fill="#FFFFFF"/><ellipse cx="203.4" cy="204.1" rx="4.4" ry="2" transform="rotate(177 203.4 204.1)" fill="#F6F0E2"/><ellipse cx="178.0" cy="224.0" rx="4.4" ry="2" transform="rotate(32 178.0 224.0)" fill="#F6F0E2"/><ellipse cx="190.6" cy="222.6" rx="4.4" ry="2" transform="rotate(121 190.6 222.6)" fill="#FFFFFF"/><ellipse cx="162.2" cy="208.7" rx="4.4" ry="2" transform="rotate(163 162.2 208.7)" fill="#F6F0E2"/><ellipse cx="298.4" cy="178.7" rx="4.4" ry="2" transform="rotate(54 298.4 178.7)" fill="#FFFFFF"/><ellipse cx="286.5" cy="197.2" rx="4.4" ry="2" transform="rotate(136 286.5 197.2)" fill="#FFFFFF"/><ellipse cx="333.1" cy="223.9" rx="4.4" ry="2" transform="rotate(172 333.1 223.9)" fill="#FFFFFF"/><ellipse cx="187.0" cy="240.8" rx="4.4" ry="2" transform="rotate(119 187.0 240.8)" fill="#FFFFFF"/><ellipse cx="323.4" cy="239.0" rx="4.4" ry="2" transform="rotate(21 323.4 239.0)" fill="#E4D9C2"/><ellipse cx="257.1" cy="231.3" rx="4.4" ry="2" transform="rotate(40 257.1 231.3)" fill="#E4D9C2"/><ellipse cx="215.5" cy="235.2" rx="4.4" ry="2" transform="rotate(73 215.5 235.2)" fill="#E4D9C2"/><ellipse cx="200.0" cy="194.0" rx="4.4" ry="2" transform="rotate(40 200.0 194.0)" fill="#F6F0E2"/><ellipse cx="198.4" cy="178.7" rx="4.4" ry="2" transform="rotate(113 198.4 178.7)" fill="#F6F0E2"/><ellipse cx="238.6" cy="224.8" rx="4.4" ry="2" transform="rotate(51 238.6 224.8)" fill="#F6F0E2"/><ellipse cx="282.8" cy="171.6" rx="4.4" ry="2" transform="rotate(162 282.8 171.6)" fill="#F6F0E2"/><ellipse cx="307.6" cy="205.8" rx="4.4" ry="2" transform="rotate(66 307.6 205.8)" fill="#F6F0E2"/><ellipse cx="291.1" cy="162.7" rx="4.4" ry="2" transform="rotate(12 291.1 162.7)" fill="#E4D9C2"/><ellipse cx="363.1" cy="231.9" rx="4.4" ry="2" transform="rotate(140 363.1 231.9)" fill="#FFFFFF"/><ellipse cx="237.9" cy="202.7" rx="4.4" ry="2" transform="rotate(112 237.9 202.7)" fill="#E4D9C2"/><ellipse cx="267.8" cy="162.8" rx="4.4" ry="2" transform="rotate(17 267.8 162.8)" fill="#FFFFFF"/><ellipse cx="207.9" cy="230.6" rx="4.4" ry="2" transform="rotate(116 207.9 230.6)" fill="#E4D9C2"/><ellipse cx="354.1" cy="214.0" rx="4.4" ry="2" transform="rotate(132 354.1 214.0)" fill="#E4D9C2"/><ellipse cx="241.9" cy="160.2" rx="4.4" ry="2" transform="rotate(128 241.9 160.2)" fill="#FFFFFF"/><ellipse cx="276.2" cy="213.2" rx="4.4" ry="2" transform="rotate(130 276.2 213.2)" fill="#E4D9C2"/><ellipse cx="263.8" cy="183.3" rx="4.4" ry="2" transform="rotate(29 263.8 183.3)" fill="#F6F0E2"/><ellipse cx="265.5" cy="198.5" rx="4.4" ry="2" transform="rotate(55 265.5 198.5)" fill="#F6F0E2"/><ellipse cx="221.5" cy="184.4" rx="4.4" ry="2" transform="rotate(76 221.5 184.4)" fill="#FFFFFF"/><ellipse cx="209.7" cy="211.6" rx="4.4" ry="2" transform="rotate(55 209.7 211.6)" fill="#FFFFFF"/><ellipse cx="316.7" cy="229.7" rx="4.4" ry="2" transform="rotate(123 316.7 229.7)" fill="#E4D9C2"/><ellipse cx="233.6" cy="227.7" rx="4.4" ry="2" transform="rotate(150 233.6 227.7)" fill="#E4D9C2"/><ellipse cx="188.4" cy="192.6" rx="4.4" ry="2" transform="rotate(163 188.4 192.6)" fill="#F6F0E2"/><ellipse cx="216.0" cy="208.8" rx="4.4" ry="2" transform="rotate(161 216.0 208.8)" fill="#E4D9C2"/><ellipse cx="318.2" cy="225.1" rx="4.4" ry="2" transform="rotate(38 318.2 225.1)" fill="#E4D9C2"/><ellipse cx="346.5" cy="210.2" rx="4.4" ry="2" transform="rotate(55 346.5 210.2)" fill="#F6F0E2"/><ellipse cx="291.5" cy="179.9" rx="4.4" ry="2" transform="rotate(150 291.5 179.9)" fill="#FFFFFF"/><ellipse cx="354.8" cy="231.0" rx="4.4" ry="2" transform="rotate(119 354.8 231.0)" fill="#E4D9C2"/><ellipse cx="256.4" cy="237.8" rx="4.4" ry="2" transform="rotate(167 256.4 237.8)" fill="#FFFFFF"/><ellipse cx="312.4" cy="194.8" rx="4.4" ry="2" transform="rotate(98 312.4 194.8)" fill="#E4D9C2"/><ellipse cx="303.5" cy="179.6" rx="4.4" ry="2" transform="rotate(108 303.5 179.6)" fill="#FFFFFF"/><ellipse cx="374.9" cy="225.7" rx="4.4" ry="2" transform="rotate(92 374.9 225.7)" fill="#FFFFFF"/><ellipse cx="208.7" cy="237.7" rx="4.4" ry="2" transform="rotate(160 208.7 237.7)" fill="#FFFFFF"/><ellipse cx="318.3" cy="180.4" rx="4.4" ry="2" transform="rotate(177 318.3 180.4)" fill="#F6F0E2"/><ellipse cx="293.2" cy="185.8" rx="4.4" ry="2" transform="rotate(31 293.2 185.8)" fill="#F6F0E2"/><ellipse cx="307.0" cy="222.2" rx="4.4" ry="2" transform="rotate(127 307.0 222.2)" fill="#F6F0E2"/><ellipse cx="220.0" cy="168.2" rx="4.4" ry="2" transform="rotate(86 220.0 168.2)" fill="#F6F0E2"/><ellipse cx="322.4" cy="186.3" rx="4.4" ry="2" transform="rotate(113 322.4 186.3)" fill="#F6F0E2"/><ellipse cx="219.8" cy="206.3" rx="4.4" ry="2" transform="rotate(46 219.8 206.3)" fill="#E4D9C2"/><ellipse cx="287.7" cy="211.5" rx="4.4" ry="2" transform="rotate(115 287.7 211.5)" fill="#E4D9C2"/><ellipse cx="364.2" cy="210.9" rx="4.4" ry="2" transform="rotate(160 364.2 210.9)" fill="#F6F0E2"/><ellipse cx="324.4" cy="208.7" rx="4.4" ry="2" transform="rotate(1 324.4 208.7)" fill="#E4D9C2"/><ellipse cx="201.6" cy="227.3" rx="4.4" ry="2" transform="rotate(21 201.6 227.3)" fill="#F6F0E2"/><ellipse cx="214.0" cy="201.3" rx="4.4" ry="2" transform="rotate(119 214.0 201.3)" fill="#E4D9C2"/><ellipse cx="161.9" cy="227.6" rx="4.4" ry="2" transform="rotate(32 161.9 227.6)" fill="#E4D9C2"/><ellipse cx="320.3" cy="219.1" rx="4.4" ry="2" transform="rotate(144 320.3 219.1)" fill="#E4D9C2"/><ellipse cx="220.6" cy="178.8" rx="4.4" ry="2" transform="rotate(177 220.6 178.8)" fill="#E4D9C2"/><ellipse cx="343.1" cy="240.7" rx="4.4" ry="2" transform="rotate(29 343.1 240.7)" fill="#FFFFFF"/><ellipse cx="181.9" cy="236.3" rx="4.4" ry="2" transform="rotate(167 181.9 236.3)" fill="#E4D9C2"/><ellipse cx="357.2" cy="214.2" rx="4.4" ry="2" transform="rotate(120 357.2 214.2)" fill="#F6F0E2"/><ellipse cx="272.9" cy="198.8" rx="4.4" ry="2" transform="rotate(65 272.9 198.8)" fill="#E4D9C2"/><ellipse cx="228.5" cy="175.9" rx="4.4" ry="2" transform="rotate(65 228.5 175.9)" fill="#FFFFFF"/><ellipse cx="234.6" cy="198.3" rx="4.4" ry="2" transform="rotate(20 234.6 198.3)" fill="#FFFFFF"/><ellipse cx="338.8" cy="216.7" rx="4.4" ry="2" transform="rotate(169 338.8 216.7)" fill="#F6F0E2"/><ellipse cx="366.1" cy="237.4" rx="4.4" ry="2" transform="rotate(144 366.1 237.4)" fill="#F6F0E2"/><ellipse cx="289.7" cy="181.0" rx="4.4" ry="2" transform="rotate(1 289.7 181.0)" fill="#E4D9C2"/><ellipse cx="329.0" cy="216.8" rx="4.4" ry="2" transform="rotate(75 329.0 216.8)" fill="#FFFFFF"/><ellipse cx="222.0" cy="204.2" rx="4.4" ry="2" transform="rotate(10 222.0 204.2)" fill="#FFFFFF"/><ellipse cx="257.7" cy="239.5" rx="4.4" ry="2" transform="rotate(95 257.7 239.5)" fill="#FFFFFF"/><ellipse cx="300.0" cy="184.0" rx="4.4" ry="2" transform="rotate(42 300.0 184.0)" fill="#E4D9C2"/><ellipse cx="246.7" cy="177.6" rx="4.4" ry="2" transform="rotate(114 246.7 177.6)" fill="#FFFFFF"/><ellipse cx="316.3" cy="235.3" rx="4.4" ry="2" transform="rotate(151 316.3 235.3)" fill="#E4D9C2"/><ellipse cx="370.3" cy="236.0" rx="4.4" ry="2" transform="rotate(46 370.3 236.0)" fill="#F6F0E2"/><ellipse cx="179.9" cy="201.6" rx="4.4" ry="2" transform="rotate(154 179.9 201.6)" fill="#F6F0E2"/><ellipse cx="255.2" cy="159.2" rx="4.4" ry="2" transform="rotate(159 255.2 159.2)" fill="#E4D9C2"/><ellipse cx="274.1" cy="161.1" rx="4.4" ry="2" transform="rotate(151 274.1 161.1)" fill="#E4D9C2"/><ellipse cx="337.5" cy="230.2" rx="4.4" ry="2" transform="rotate(14 337.5 230.2)" fill="#FFFFFF"/><ellipse cx="329.3" cy="204.8" rx="4.4" ry="2" transform="rotate(98 329.3 204.8)" fill="#F6F0E2"/><ellipse cx="291.5" cy="175.7" rx="4.4" ry="2" transform="rotate(159 291.5 175.7)" fill="#F6F0E2"/><ellipse cx="193.3" cy="192.4" rx="4.4" ry="2" transform="rotate(51 193.3 192.4)" fill="#E4D9C2"/><ellipse cx="177.1" cy="234.4" rx="4.4" ry="2" transform="rotate(8 177.1 234.4)" fill="#F6F0E2"/><ellipse cx="268.9" cy="228.2" rx="4.4" ry="2" transform="rotate(152 268.9 228.2)" fill="#FFFFFF"/><ellipse cx="191.2" cy="211.7" rx="4.4" ry="2" transform="rotate(144 191.2 211.7)" fill="#FFFFFF"/><ellipse cx="210.9" cy="227.5" rx="4.4" ry="2" transform="rotate(172 210.9 227.5)" fill="#FFFFFF"/><ellipse cx="191.7" cy="234.3" rx="4.4" ry="2" transform="rotate(166 191.7 234.3)" fill="#FFFFFF"/><ellipse cx="212.8" cy="196.7" rx="4.4" ry="2" transform="rotate(76 212.8 196.7)" fill="#FFFFFF"/><ellipse cx="267.5" cy="179.8" rx="4.4" ry="2" transform="rotate(30 267.5 179.8)" fill="#FFFFFF"/><ellipse cx="264.5" cy="199.6" rx="4.4" ry="2" transform="rotate(124 264.5 199.6)" fill="#FFFFFF"/><ellipse cx="176.8" cy="238.6" rx="4.4" ry="2" transform="rotate(160 176.8 238.6)" fill="#E4D9C2"/><ellipse cx="220.5" cy="179.9" rx="4.4" ry="2" transform="rotate(50 220.5 179.9)" fill="#E4D9C2"/><ellipse cx="282.1" cy="202.5" rx="4.4" ry="2" transform="rotate(112 282.1 202.5)" fill="#E4D9C2"/><ellipse cx="325.2" cy="199.3" rx="4.4" ry="2" transform="rotate(76 325.2 199.3)" fill="#F6F0E2"/><ellipse cx="283.9" cy="238.6" rx="4.4" ry="2" transform="rotate(27 283.9 238.6)" fill="#F6F0E2"/><ellipse cx="270.6" cy="171.3" rx="4.4" ry="2" transform="rotate(112 270.6 171.3)" fill="#FFFFFF"/><ellipse cx="275.7" cy="238.9" rx="4.4" ry="2" transform="rotate(47 275.7 238.9)" fill="#E4D9C2"/><ellipse cx="305.4" cy="216.2" rx="4.4" ry="2" transform="rotate(172 305.4 216.2)" fill="#F6F0E2"/><ellipse cx="181.9" cy="238.0" rx="4.4" ry="2" transform="rotate(153 181.9 238.0)" fill="#E4D9C2"/><ellipse cx="193.3" cy="193.5" rx="4.4" ry="2" transform="rotate(53 193.3 193.5)" fill="#F6F0E2"/><ellipse cx="355.8" cy="207.9" rx="4.4" ry="2" transform="rotate(35 355.8 207.9)" fill="#F6F0E2"/><ellipse cx="298.6" cy="200.2" rx="4.4" ry="2" transform="rotate(40 298.6 200.2)" fill="#FFFFFF"/><ellipse cx="232.0" cy="208.6" rx="4.4" ry="2" transform="rotate(70 232.0 208.6)" fill="#E4D9C2"/><ellipse cx="248.2" cy="216.8" rx="4.4" ry="2" transform="rotate(52 248.2 216.8)" fill="#FFFFFF"/><ellipse cx="187.6" cy="186.2" rx="4.4" ry="2" transform="rotate(71 187.6 186.2)" fill="#FFFFFF"/><ellipse cx="246.5" cy="217.3" rx="4.4" ry="2" transform="rotate(100 246.5 217.3)" fill="#F6F0E2"/><ellipse cx="225.0" cy="180.8" rx="4.4" ry="2" transform="rotate(123 225.0 180.8)" fill="#FFFFFF"/><ellipse cx="233.3" cy="168.2" rx="4.4" ry="2" transform="rotate(63 233.3 168.2)" fill="#E4D9C2"/><ellipse cx="246.1" cy="216.7" rx="4.4" ry="2" transform="rotate(71 246.1 216.7)" fill="#FFFFFF"/><ellipse cx="249.9" cy="197.3" rx="4.4" ry="2" transform="rotate(135 249.9 197.3)" fill="#FFFFFF"/><ellipse cx="251.8" cy="217.3" rx="4.4" ry="2" transform="rotate(136 251.8 217.3)" fill="#F6F0E2"/><ellipse cx="219.0" cy="210.9" rx="4.4" ry="2" transform="rotate(160 219.0 210.9)" fill="#F6F0E2"/><ellipse cx="355.6" cy="216.5" rx="4.4" ry="2" transform="rotate(144 355.6 216.5)" fill="#F6F0E2"/><ellipse cx="351.9" cy="240.1" rx="4.4" ry="2" transform="rotate(150 351.9 240.1)" fill="#E4D9C2"/><ellipse cx="259.1" cy="240.6" rx="4.4" ry="2" transform="rotate(66 259.1 240.6)" fill="#FFFFFF"/><ellipse cx="279.9" cy="206.4" rx="4.4" ry="2" transform="rotate(166 279.9 206.4)" fill="#F6F0E2"/><ellipse cx="173.2" cy="198.2" rx="4.4" ry="2" transform="rotate(94 173.2 198.2)" fill="#E4D9C2"/><ellipse cx="336.0" cy="212.3" rx="4.4" ry="2" transform="rotate(111 336.0 212.3)" fill="#F6F0E2"/><ellipse cx="198.6" cy="196.7" rx="4.4" ry="2" transform="rotate(166 198.6 196.7)" fill="#F6F0E2"/><ellipse cx="242.6" cy="227.4" rx="4.4" ry="2" transform="rotate(22 242.6 227.4)" fill="#FFFFFF"/><ellipse cx="342.1" cy="188.5" rx="4.4" ry="2" transform="rotate(64 342.1 188.5)" fill="#E4D9C2"/><ellipse cx="271.7" cy="237.1" rx="4.4" ry="2" transform="rotate(165 271.7 237.1)" fill="#F6F0E2"/><ellipse cx="326.5" cy="222.4" rx="4.4" ry="2" transform="rotate(175 326.5 222.4)" fill="#F6F0E2"/><ellipse cx="319.0" cy="180.7" rx="4.4" ry="2" transform="rotate(91 319.0 180.7)" fill="#FFFFFF"/><ellipse cx="319.2" cy="210.9" rx="4.4" ry="2" transform="rotate(46 319.2 210.9)" fill="#E4D9C2"/><ellipse cx="307.8" cy="231.0" rx="4.4" ry="2" transform="rotate(96 307.8 231.0)" fill="#FFFFFF"/><ellipse cx="252.4" cy="212.5" rx="4.4" ry="2" transform="rotate(103 252.4 212.5)" fill="#FFFFFF"/><ellipse cx="154.6" cy="225.0" rx="4.4" ry="2" transform="rotate(139 154.6 225.0)" fill="#FFFFFF"/><ellipse cx="218.4" cy="178.8" rx="4.4" ry="2" transform="rotate(81 218.4 178.8)" fill="#FFFFFF"/><ellipse cx="314.3" cy="208.0" rx="4.4" ry="2" transform="rotate(40 314.3 208.0)" fill="#E4D9C2"/><ellipse cx="189.7" cy="222.8" rx="4.4" ry="2" transform="rotate(40 189.7 222.8)" fill="#FFFFFF"/><ellipse cx="262.3" cy="178.7" rx="4.4" ry="2" transform="rotate(48 262.3 178.7)" fill="#F6F0E2"/><ellipse cx="280.2" cy="214.5" rx="4.4" ry="2" transform="rotate(165 280.2 214.5)" fill="#F6F0E2"/><ellipse cx="299.8" cy="213.7" rx="4.4" ry="2" transform="rotate(111 299.8 213.7)" fill="#F6F0E2"/><ellipse cx="166.7" cy="229.0" rx="4.4" ry="2" transform="rotate(61 166.7 229.0)" fill="#E4D9C2"/><ellipse cx="157.4" cy="221.3" rx="4.4" ry="2" transform="rotate(12 157.4 221.3)" fill="#E4D9C2"/><ellipse cx="202.5" cy="194.0" rx="4.4" ry="2" transform="rotate(70 202.5 194.0)" fill="#FFFFFF"/><ellipse cx="366.2" cy="219.3" rx="4.4" ry="2" transform="rotate(129 366.2 219.3)" fill="#FFFFFF"/><ellipse cx="343.5" cy="216.2" rx="4.4" ry="2" transform="rotate(148 343.5 216.2)" fill="#E4D9C2"/><ellipse cx="316.9" cy="196.2" rx="4.4" ry="2" transform="rotate(68 316.9 196.2)" fill="#E4D9C2"/><ellipse cx="184.1" cy="190.8" rx="4.4" ry="2" transform="rotate(156 184.1 190.8)" fill="#E4D9C2"/><ellipse cx="255.4" cy="189.5" rx="4.4" ry="2" transform="rotate(170 255.4 189.5)" fill="#F6F0E2"/><ellipse cx="202.3" cy="208.2" rx="4.4" ry="2" transform="rotate(49 202.3 208.2)" fill="#FFFFFF"/><ellipse cx="207.1" cy="212.8" rx="4.4" ry="2" transform="rotate(60 207.1 212.8)" fill="#E4D9C2"/><ellipse cx="211.6" cy="235.1" rx="4.4" ry="2" transform="rotate(146 211.6 235.1)" fill="#FFFFFF"/><ellipse cx="265.1" cy="165.7" rx="4.4" ry="2" transform="rotate(168 265.1 165.7)" fill="#FFFFFF"/><ellipse cx="307.3" cy="184.7" rx="4.4" ry="2" transform="rotate(98 307.3 184.7)" fill="#E4D9C2"/><ellipse cx="187.4" cy="223.9" rx="4.4" ry="2" transform="rotate(101 187.4 223.9)" fill="#FFFFFF"/><ellipse cx="252.8" cy="156.8" rx="4.4" ry="2" transform="rotate(95 252.8 156.8)" fill="#F6F0E2"/><ellipse cx="204.3" cy="185.5" rx="4.4" ry="2" transform="rotate(95 204.3 185.5)" fill="#F6F0E2"/><ellipse cx="285.3" cy="163.3" rx="4.4" ry="2" transform="rotate(88 285.3 163.3)" fill="#E4D9C2"/><ellipse cx="225.1" cy="214.6" rx="4.4" ry="2" transform="rotate(34 225.1 214.6)" fill="#F6F0E2"/><ellipse cx="324.4" cy="179.4" rx="4.4" ry="2" transform="rotate(6 324.4 179.4)" fill="#FFFFFF"/><ellipse cx="188.5" cy="198.6" rx="4.4" ry="2" transform="rotate(170 188.5 198.6)" fill="#F6F0E2"/><ellipse cx="230.2" cy="196.3" rx="4.4" ry="2" transform="rotate(148 230.2 196.3)" fill="#F6F0E2"/><ellipse cx="311.5" cy="172.0" rx="4.4" ry="2" transform="rotate(79 311.5 172.0)" fill="#E4D9C2"/><ellipse cx="262.9" cy="194.0" rx="4.4" ry="2" transform="rotate(174 262.9 194.0)" fill="#FFFFFF"/><ellipse cx="207.4" cy="218.2" rx="4.4" ry="2" transform="rotate(18 207.4 218.2)" fill="#F6F0E2"/><ellipse cx="288.2" cy="162.9" rx="4.4" ry="2" transform="rotate(91 288.2 162.9)" fill="#FFFFFF"/><ellipse cx="303.5" cy="193.3" rx="4.4" ry="2" transform="rotate(6 303.5 193.3)" fill="#FFFFFF"/><ellipse cx="292.0" cy="185.5" rx="4.4" ry="2" transform="rotate(30 292.0 185.5)" fill="#F6F0E2"/><ellipse cx="312.7" cy="191.1" rx="4.4" ry="2" transform="rotate(70 312.7 191.1)" fill="#F6F0E2"/><ellipse cx="246.9" cy="213.4" rx="4.4" ry="2" transform="rotate(7 246.9 213.4)" fill="#E4D9C2"/><ellipse cx="279.1" cy="221.2" rx="4.4" ry="2" transform="rotate(99 279.1 221.2)" fill="#E4D9C2"/><ellipse cx="260.4" cy="172.1" rx="4.4" ry="2" transform="rotate(140 260.4 172.1)" fill="#FFFFFF"/><ellipse cx="316.4" cy="187.4" rx="4.4" ry="2" transform="rotate(67 316.4 187.4)" fill="#F6F0E2"/><ellipse cx="247.4" cy="185.4" rx="4.4" ry="2" transform="rotate(5 247.4 185.4)" fill="#E4D9C2"/><ellipse cx="313.5" cy="235.2" rx="4.4" ry="2" transform="rotate(80 313.5 235.2)" fill="#F6F0E2"/><ellipse cx="230.7" cy="201.0" rx="4.4" ry="2" transform="rotate(143 230.7 201.0)" fill="#FFFFFF"/><ellipse cx="179.0" cy="206.6" rx="4.4" ry="2" transform="rotate(92 179.0 206.6)" fill="#FFFFFF"/><ellipse cx="305.3" cy="174.3" rx="4.4" ry="2" transform="rotate(134 305.3 174.3)" fill="#FFFFFF"/><ellipse cx="245.8" cy="173.4" rx="4.4" ry="2" transform="rotate(30 245.8 173.4)" fill="#FFFFFF"/><ellipse cx="169.8" cy="234.7" rx="4.4" ry="2" transform="rotate(174 169.8 234.7)" fill="#F6F0E2"/><ellipse cx="275.1" cy="234.6" rx="4.4" ry="2" transform="rotate(148 275.1 234.6)" fill="#FFFFFF"/><ellipse cx="293.7" cy="172.4" rx="4.4" ry="2" transform="rotate(132 293.7 172.4)" fill="#E4D9C2"/><ellipse cx="352.6" cy="230.2" rx="4.4" ry="2" transform="rotate(46 352.6 230.2)" fill="#F6F0E2"/><ellipse cx="288.1" cy="188.2" rx="4.4" ry="2" transform="rotate(48 288.1 188.2)" fill="#FFFFFF"/><ellipse cx="260.9" cy="204.5" rx="4.4" ry="2" transform="rotate(74 260.9 204.5)" fill="#E4D9C2"/><ellipse cx="327.7" cy="197.0" rx="4.4" ry="2" transform="rotate(81 327.7 197.0)" fill="#FFFFFF"/><ellipse cx="302.9" cy="192.8" rx="4.4" ry="2" transform="rotate(31 302.9 192.8)" fill="#F6F0E2"/><ellipse cx="350.5" cy="211.7" rx="4.4" ry="2" transform="rotate(13 350.5 211.7)" fill="#E4D9C2"/><ellipse cx="266.3" cy="209.0" rx="4.4" ry="2" transform="rotate(155 266.3 209.0)" fill="#E4D9C2"/><ellipse cx="310.9" cy="198.1" rx="4.4" ry="2" transform="rotate(143 310.9 198.1)" fill="#F6F0E2"/><ellipse cx="269.6" cy="219.1" rx="4.4" ry="2" transform="rotate(60 269.6 219.1)" fill="#F6F0E2"/><ellipse cx="329.0" cy="191.4" rx="4.4" ry="2" transform="rotate(99 329.0 191.4)" fill="#F6F0E2"/><ellipse cx="204.9" cy="232.6" rx="4.4" ry="2" transform="rotate(153 204.9 232.6)" fill="#F6F0E2"/><ellipse cx="297.8" cy="195.4" rx="4.4" ry="2" transform="rotate(106 297.8 195.4)" fill="#F6F0E2"/><ellipse cx="196.4" cy="184.7" rx="4.4" ry="2" transform="rotate(51 196.4 184.7)" fill="#F6F0E2"/><ellipse cx="320.8" cy="231.5" rx="4.4" ry="2" transform="rotate(46 320.8 231.5)" fill="#FFFFFF"/>
<path d="M116 236 A 146 30 0 0 0 408 236" fill="none" stroke="#2F6DAE" stroke-width="9" stroke-linecap="round"/>
<g transform="translate(470 268)" filter="url(#ombre-douce)"><ellipse cx="0" cy="34" rx="40" ry="10" fill="#9DA5AA"/><rect x="-40" y="-70" width="80" height="104" fill="url(#metal)"/><rect x="-40" y="-52" width="80" height="64" fill="#D9412E"/><rect x="-40" y="-52" width="80" height="6" fill="#F4C542"/><rect x="-40" y="6" width="80" height="6" fill="#F4C542"/><circle cx="0" cy="-20" r="19" fill="#F26A4B"/><circle cx="-6" cy="-26" r="5" fill="#FFFFFF" opacity=".4"/><path d="M-6 -38 q 7 -9 14 -2" stroke="#3E8E2E" stroke-width="4" fill="none" stroke-linecap="round"/><ellipse cx="0" cy="-70" rx="40" ry="11" fill="#D3D8DB"/><ellipse cx="0" cy="-70" rx="34" ry="8" fill="#FBF7EC"/><ellipse cx="-14.3" cy="-72.4" rx="3.6" ry="1.6" fill="#E6DCC4"/><ellipse cx="-0.2" cy="-72.1" rx="3.6" ry="1.6" fill="#E6DCC4"/><ellipse cx="-11.7" cy="-69.4" rx="3.6" ry="1.6" fill="#E6DCC4"/><ellipse cx="-16.9" cy="-70.6" rx="3.6" ry="1.6" fill="#E6DCC4"/><ellipse cx="-6.4" cy="-67.3" rx="3.6" ry="1.6" fill="#E6DCC4"/><ellipse cx="-20.2" cy="-69.9" rx="3.6" ry="1.6" fill="#E6DCC4"/><ellipse cx="-1.5" cy="-72.0" rx="3.6" ry="1.6" fill="#E6DCC4"/><ellipse cx="-7.4" cy="-70.8" rx="3.6" ry="1.6" fill="#E6DCC4"/><ellipse cx="-6.8" cy="-69.7" rx="3.6" ry="1.6" fill="#E6DCC4"/><ellipse cx="2.7" cy="-70.2" rx="3.6" ry="1.6" fill="#E6DCC4"/><ellipse cx="-2.9" cy="-69.3" rx="3.6" ry="1.6" fill="#E6DCC4"/><ellipse cx="-0.7" cy="-72.2" rx="3.6" ry="1.6" fill="#E6DCC4"/><ellipse cx="7.5" cy="-70.5" rx="3.6" ry="1.6" fill="#E6DCC4"/><ellipse cx="16.9" cy="-72.2" rx="3.6" ry="1.6" fill="#E6DCC4"/></g>
</svg>
