<svg xmlns="http://www.w3.org/2000/svg" width="640" height="400" viewBox="0 0 640 400">
<!-- Illustration originale Zando Prix — saka-saka. Propriété du projet, aucune licence tierce. -->
<defs>
  <radialGradient id="fond" cx="50%" cy="40%" r="80%"><stop offset="0" stop-color="#F3FAF1"/><stop offset="1" stop-color="#CBEAC4"/></radialGradient>
  <linearGradient id="plateau" x1="0" y1="0" x2="0" y2="1"><stop offset="0" stop-color="#E4C48A"/><stop offset="1" stop-color="#C79A55"/></linearGradient>
  <linearGradient id="sac" x1="0" y1="0" x2="1" y2="1"><stop offset="0" stop-color="#FCF9F2"/><stop offset="1" stop-color="#D8CEB8"/></linearGradient>
  <linearGradient id="sac-sombre" x1="0" y1="0" x2="1" y2="1"><stop offset="0" stop-color="#3C5A74"/><stop offset="1" stop-color="#1E3242"/></linearGradient>
  <linearGradient id="cuvette" x1="0" y1="0" x2="0" y2="1"><stop offset="0" stop-color="#3D86C8"/><stop offset="1" stop-color="#28598D"/></linearGradient>
  <linearGradient id="cuvette-int" x1="0" y1="0" x2="0" y2="1"><stop offset="0" stop-color="#FFFFFF"/><stop offset="1" stop-color="#E1E6E3"/></linearGradient>
  <linearGradient id="riz" x1="0" y1="0" x2="0" y2="1"><stop offset="0" stop-color="#FFFEF9"/><stop offset="1" stop-color="#EAE1CB"/></linearGradient>
  <linearGradient id="farine" x1="0" y1="0" x2="0" y2="1"><stop offset="0" stop-color="#FFFFFF"/><stop offset="1" stop-color="#E9E5DB"/></linearGradient>
  <linearGradient id="haricot" x1="0" y1="0" x2="0" y2="1"><stop offset="0" stop-color="#A5302A"/><stop offset="1" stop-color="#6E1A16"/></linearGradient>
  <linearGradient id="metal" x1="0" y1="0" x2="1" y2="0"><stop offset="0" stop-color="#B7BEC3"/><stop offset=".45" stop-color="#F1F3F4"/><stop offset="1" stop-color="#A9B1B6"/></linearGradient>
  <linearGradient id="carton" x1="0" y1="0" x2="0" y2="1"><stop offset="0" stop-color="#DDAE70"/><stop offset="1" stop-color="#B7844A"/></linearGradient>
  <linearGradient id="poisson" x1="0" y1="0" x2="0" y2="1"><stop offset="0" stop-color="#7F97A9"/><stop offset=".55" stop-color="#C5D3DC"/><stop offset="1" stop-color="#EEF3F6"/></linearGradient>
  <linearGradient id="huile" x1="0" y1="0" x2="1" y2="0"><stop offset="0" stop-color="#E7A51B"/><stop offset=".5" stop-color="#F7CF55"/><stop offset="1" stop-color="#DB9612"/></linearGradient>
  <linearGradient id="oeuf" x1="0" y1="0" x2="1" y2="1"><stop offset="0" stop-color="#F9E9D2"/><stop offset="1" stop-color="#DDB68A"/></linearGradient>
  <linearGradient id="feuille" x1="0" y1="0" x2="0" y2="1"><stop offset="0" stop-color="#7DBE55"/><stop offset="1" stop-color="#3E7A2C"/></linearGradient>
  <linearGradient id="feuille-sombre" x1="0" y1="0" x2="0" y2="1"><stop offset="0" stop-color="#5E9E3E"/><stop offset="1" stop-color="#2F6322"/></linearGradient>
  <linearGradient id="manioc" x1="0" y1="0" x2="0" y2="1"><stop offset="0" stop-color="#F6F1E6"/><stop offset="1" stop-color="#DCD2BE"/></linearGradient>
  <linearGradient id="bol" x1="0" y1="0" x2="0" y2="1"><stop offset="0" stop-color="#FFFFFF"/><stop offset="1" stop-color="#D9E3DC"/></linearGradient>
  <linearGradient id="bois" x1="0" y1="0" x2="0" y2="1"><stop offset="0" stop-color="#C99A5B"/><stop offset="1" stop-color="#9C6E36"/></linearGradient>
  <filter id="ombre" x="-30%" y="-30%" width="160%" height="180%"><feDropShadow dx="0" dy="12" stdDeviation="12" flood-color="#041B12" flood-opacity="0.20"/></filter>
  <filter id="ombre-douce" x="-40%" y="-40%" width="180%" height="200%"><feDropShadow dx="0" dy="5" stdDeviation="5" flood-color="#041B12" flood-opacity="0.18"/></filter>
</defs>
<rect width="640" height="400" fill="url(#fond)"/>
<circle cx="92" cy="70" r="46" fill="#FFFFFF" opacity="0.45"/><circle cx="560" cy="330" r="70" fill="#FFFFFF" opacity="0.3"/>
<ellipse cx="330" cy="336" rx="190" ry="22" fill="#041B12" opacity="0.12"/>
<g transform="translate(150 300) rotate(-28) scale(1.0)"><path d="M0 0 C 11 -22, 12 -62, 0 -86 C -12 -62, -11 -22, 0 0 Z" transform="rotate(-64)" fill="url(#feuille)"/><path d="M0 -4 L 0 -78" transform="rotate(-64)" stroke="#2E6A22" stroke-width="2" opacity=".5"/><path d="M0 0 C 11 -22, 12 -62, 0 -86 C -12 -62, -11 -22, 0 0 Z" transform="rotate(-32)" fill="url(#feuille)"/><path d="M0 -4 L 0 -78" transform="rotate(-32)" stroke="#2E6A22" stroke-width="2" opacity=".5"/><path d="M0 0 C 11 -22, 12 -62, 0 -86 C -12 -62, -11 -22, 0 0 Z" transform="rotate(0)" fill="url(#feuille)"/><path d="M0 -4 L 0 -78" transform="rotate(0)" stroke="#2E6A22" stroke-width="2" opacity=".5"/><path d="M0 0 C 11 -22, 12 -62, 0 -86 C -12 -62, -11 -22, 0 0 Z" transform="rotate(32)" fill="url(#feuille)"/><path d="M0 -4 L 0 -78" transform="rotate(32)" stroke="#2E6A22" stroke-width="2" opacity=".5"/><path d="M0 0 C 11 -22, 12 -62, 0 -86 C -12 -62, -11 -22, 0 0 Z" transform="rotate(64)" fill="url(#feuille)"/><path d="M0 -4 L 0 -78" transform="rotate(64)" stroke="#2E6A22" stroke-width="2" opacity=".5"/><path d="M0 0 L 0 46" stroke="#6B8E3A" stroke-width="5" stroke-linecap="round"/></g>
<g filter="url(#ombre)"><path d="M170 214 C 180 310, 260 336, 330 336 C 400 336, 480 310, 490 214 Z" fill="url(#bol)"/></g>
<ellipse cx="330" cy="214" rx="160" ry="30" fill="#EEF3EF" stroke="#3E7A2C" stroke-width="8"/>
<path d="M190 216 C 228 172.6, 280 146, 330 146 C 380 146, 432 172.6, 470 216 C 390 238, 270 238, 190 216 Z" fill="#2F6B26"/>
<circle cx="241.5" cy="197.0" r="5.0" fill="#56A043"/><circle cx="323.3" cy="217.3" r="3.2" fill="#2C6624"/><circle cx="236.3" cy="201.6" r="6.2" fill="#1F4E19"/><circle cx="401.5" cy="176.1" r="4.3" fill="#3F8A34"/><circle cx="340.6" cy="197.3" r="5.1" fill="#3F8A34"/><circle cx="221.4" cy="205.8" r="2.6" fill="#2C6624"/><circle cx="343.7" cy="171.4" r="4.4" fill="#2C6624"/><circle cx="373.6" cy="180.8" r="5.8" fill="#1F4E19"/><circle cx="453.8" cy="212.2" r="5.5" fill="#1F4E19"/><circle cx="441.7" cy="211.7" r="4.1" fill="#3F8A34"/><circle cx="281.9" cy="181.8" r="3.6" fill="#1F4E19"/><circle cx="240.0" cy="199.0" r="6.4" fill="#1F4E19"/><circle cx="327.8" cy="186.7" r="5.5" fill="#2C6624"/><circle cx="348.9" cy="169.6" r="6.4" fill="#1F4E19"/><circle cx="289.9" cy="214.6" r="3.9" fill="#3F8A34"/><circle cx="311.2" cy="157.8" r="2.6" fill="#2C6624"/><circle cx="297.1" cy="164.3" r="6.0" fill="#2C6624"/><circle cx="346.3" cy="178.5" r="4.1" fill="#56A043"/><circle cx="423.3" cy="194.7" r="2.6" fill="#2C6624"/><circle cx="287.3" cy="212.5" r="6.4" fill="#56A043"/><circle cx="369.7" cy="213.4" r="4.4" fill="#2C6624"/><circle cx="402.0" cy="181.8" r="6.1" fill="#56A043"/><circle cx="279.3" cy="185.5" r="3.6" fill="#1F4E19"/><circle cx="386.9" cy="165.6" r="3.8" fill="#2C6624"/><circle cx="422.8" cy="189.2" r="3.5" fill="#56A043"/><circle cx="396.4" cy="206.1" r="3.1" fill="#2C6624"/><circle cx="235.2" cy="210.2" r="5.1" fill="#2C6624"/><circle cx="278.3" cy="215.7" r="4.1" fill="#2C6624"/><circle cx="362.0" cy="159.4" r="5.9" fill="#2C6624"/><circle cx="385.4" cy="186.7" r="2.7" fill="#1F4E19"/><circle cx="385.8" cy="164.7" r="5.3" fill="#3F8A34"/><circle cx="239.2" cy="199.7" r="6.5" fill="#56A043"/><circle cx="356.7" cy="183.6" r="5.4" fill="#3F8A34"/><circle cx="275.0" cy="192.2" r="5.5" fill="#2C6624"/><circle cx="214.8" cy="206.3" r="6.4" fill="#3F8A34"/><circle cx="309.0" cy="210.2" r="5.1" fill="#56A043"/><circle cx="331.3" cy="216.1" r="5.2" fill="#56A043"/><circle cx="322.3" cy="184.0" r="6.0" fill="#1F4E19"/><circle cx="312.6" cy="164.3" r="5.3" fill="#56A043"/><circle cx="389.1" cy="179.7" r="3.4" fill="#56A043"/><circle cx="284.5" cy="162.9" r="6.2" fill="#1F4E19"/><circle cx="296.5" cy="190.7" r="3.4" fill="#56A043"/><circle cx="363.5" cy="202.1" r="5.2" fill="#3F8A34"/><circle cx="262.8" cy="213.8" r="4.0" fill="#56A043"/><circle cx="415.8" cy="217.3" r="6.5" fill="#1F4E19"/><circle cx="429.2" cy="199.0" r="2.9" fill="#2C6624"/><circle cx="447.1" cy="200.9" r="4.3" fill="#1F4E19"/><circle cx="312.4" cy="196.2" r="4.0" fill="#2C6624"/><circle cx="266.9" cy="216.4" r="3.8" fill="#3F8A34"/><circle cx="447.5" cy="217.6" r="6.1" fill="#2C6624"/><circle cx="260.9" cy="196.9" r="5.4" fill="#2C6624"/><circle cx="313.3" cy="191.7" r="3.6" fill="#2C6624"/><circle cx="374.3" cy="192.0" r="2.9" fill="#2C6624"/><circle cx="207.1" cy="206.0" r="6.2" fill="#3F8A34"/><circle cx="382.9" cy="163.8" r="2.5" fill="#2C6624"/><circle cx="317.9" cy="212.2" r="4.0" fill="#2C6624"/><circle cx="348.7" cy="213.5" r="4.2" fill="#1F4E19"/><circle cx="279.5" cy="176.9" r="6.0" fill="#2C6624"/><circle cx="257.4" cy="205.4" r="5.9" fill="#56A043"/><circle cx="435.5" cy="201.3" r="5.5" fill="#2C6624"/><circle cx="238.2" cy="182.8" r="4.6" fill="#56A043"/><circle cx="322.4" cy="205.2" r="3.9" fill="#3F8A34"/><circle cx="411.0" cy="195.4" r="3.2" fill="#1F4E19"/><circle cx="377.7" cy="194.3" r="3.1" fill="#1F4E19"/><circle cx="259.4" cy="172.5" r="3.5" fill="#2C6624"/><circle cx="380.4" cy="199.9" r="4.6" fill="#1F4E19"/><circle cx="283.7" cy="162.2" r="4.5" fill="#3F8A34"/><circle cx="358.2" cy="192.8" r="5.1" fill="#1F4E19"/><circle cx="385.3" cy="182.5" r="3.1" fill="#56A043"/><circle cx="411.0" cy="213.1" r="5.2" fill="#2C6624"/><circle cx="377.8" cy="193.9" r="5.0" fill="#1F4E19"/><circle cx="446.6" cy="215.3" r="5.7" fill="#1F4E19"/><circle cx="297.3" cy="201.4" r="3.2" fill="#56A043"/><circle cx="344.5" cy="203.4" r="5.5" fill="#3F8A34"/><circle cx="356.2" cy="172.0" r="5.2" fill="#3F8A34"/><circle cx="438.7" cy="216.6" r="5.5" fill="#2C6624"/><circle cx="338.6" cy="173.4" r="6.5" fill="#3F8A34"/><circle cx="310.0" cy="193.4" r="5.6" fill="#2C6624"/><circle cx="369.8" cy="164.7" r="4.2" fill="#56A043"/><circle cx="256.7" cy="181.3" r="2.7" fill="#56A043"/><circle cx="252.3" cy="204.4" r="3.8" fill="#56A043"/><circle cx="409.9" cy="200.5" r="5.4" fill="#2C6624"/><circle cx="297.5" cy="175.1" r="2.5" fill="#3F8A34"/><circle cx="391.8" cy="206.1" r="4.4" fill="#1F4E19"/><circle cx="205.2" cy="213.8" r="3.0" fill="#3F8A34"/><circle cx="319.8" cy="174.8" r="5.0" fill="#1F4E19"/><circle cx="426.4" cy="201.6" r="4.0" fill="#3F8A34"/><circle cx="391.8" cy="180.0" r="3.0" fill="#2C6624"/><circle cx="355.2" cy="170.7" r="5.9" fill="#3F8A34"/><circle cx="396.5" cy="215.2" r="2.9" fill="#3F8A34"/><circle cx="368.5" cy="184.0" r="3.0" fill="#56A043"/><circle cx="255.5" cy="196.8" r="3.8" fill="#3F8A34"/><circle cx="272.9" cy="165.4" r="5.8" fill="#1F4E19"/><circle cx="230.5" cy="211.2" r="5.1" fill="#1F4E19"/><circle cx="384.0" cy="182.1" r="4.7" fill="#3F8A34"/><circle cx="304.1" cy="178.8" r="5.1" fill="#2C6624"/><circle cx="313.9" cy="163.2" r="5.9" fill="#56A043"/><circle cx="420.7" cy="203.3" r="6.1" fill="#1F4E19"/><circle cx="380.8" cy="168.1" r="6.4" fill="#56A043"/><circle cx="362.8" cy="208.7" r="3.4" fill="#1F4E19"/><circle cx="242.0" cy="193.6" r="5.0" fill="#1F4E19"/><circle cx="382.7" cy="185.9" r="2.8" fill="#2C6624"/><circle cx="256.0" cy="188.0" r="3.5" fill="#56A043"/><circle cx="350.3" cy="206.5" r="4.6" fill="#1F4E19"/><circle cx="303.5" cy="217.0" r="5.7" fill="#3F8A34"/><circle cx="304.7" cy="205.7" r="4.4" fill="#1F4E19"/><circle cx="388.0" cy="185.3" r="3.2" fill="#3F8A34"/><circle cx="296.0" cy="182.3" r="3.6" fill="#3F8A34"/><circle cx="407.3" cy="201.8" r="3.1" fill="#3F8A34"/><circle cx="301.1" cy="166.0" r="5.2" fill="#2C6624"/><circle cx="211.0" cy="201.2" r="5.8" fill="#1F4E19"/><circle cx="363.7" cy="181.0" r="4.7" fill="#3F8A34"/><circle cx="363.3" cy="191.0" r="4.2" fill="#1F4E19"/><circle cx="310.3" cy="160.8" r="2.6" fill="#2C6624"/><circle cx="241.7" cy="217.3" r="2.6" fill="#2C6624"/><circle cx="422.5" cy="217.3" r="3.5" fill="#3F8A34"/><circle cx="337.5" cy="173.8" r="3.6" fill="#2C6624"/><circle cx="380.6" cy="181.5" r="3.8" fill="#2C6624"/><circle cx="274.0" cy="201.5" r="5.3" fill="#1F4E19"/><circle cx="298.3" cy="218.3" r="3.2" fill="#56A043"/><circle cx="297.5" cy="160.0" r="5.1" fill="#2C6624"/><circle cx="311.7" cy="195.1" r="3.7" fill="#2C6624"/><circle cx="386.3" cy="201.8" r="3.2" fill="#1F4E19"/><circle cx="332.7" cy="167.9" r="4.3" fill="#3F8A34"/><circle cx="307.1" cy="175.0" r="5.4" fill="#1F4E19"/><circle cx="306.1" cy="204.6" r="6.0" fill="#56A043"/><circle cx="363.1" cy="169.1" r="5.3" fill="#3F8A34"/><circle cx="364.9" cy="206.6" r="3.6" fill="#2C6624"/><circle cx="349.3" cy="187.0" r="5.9" fill="#3F8A34"/><circle cx="362.1" cy="158.5" r="5.5" fill="#1F4E19"/><circle cx="243.9" cy="200.2" r="4.1" fill="#3F8A34"/><circle cx="255.2" cy="175.3" r="5.7" fill="#3F8A34"/><circle cx="395.0" cy="200.0" r="3.5" fill="#3F8A34"/><circle cx="258.1" cy="206.8" r="5.6" fill="#2C6624"/><circle cx="452.6" cy="214.0" r="4.3" fill="#2C6624"/><circle cx="247.3" cy="191.6" r="6.4" fill="#56A043"/><circle cx="386.7" cy="182.0" r="6.1" fill="#2C6624"/><circle cx="413.7" cy="213.3" r="5.0" fill="#1F4E19"/><circle cx="365.8" cy="192.6" r="2.8" fill="#56A043"/><circle cx="457.7" cy="209.9" r="5.7" fill="#56A043"/><circle cx="276.7" cy="202.5" r="3.4" fill="#1F4E19"/><circle cx="440.5" cy="194.4" r="4.7" fill="#3F8A34"/><circle cx="301.6" cy="201.1" r="4.0" fill="#1F4E19"/><circle cx="438.6" cy="193.5" r="6.1" fill="#56A043"/><circle cx="288.2" cy="167.6" r="5.8" fill="#56A043"/><circle cx="349.1" cy="169.4" r="4.9" fill="#56A043"/><circle cx="339.1" cy="201.7" r="5.0" fill="#3F8A34"/><circle cx="340.8" cy="217.0" r="3.2" fill="#2C6624"/><circle cx="268.1" cy="201.5" r="4.2" fill="#3F8A34"/><circle cx="426.5" cy="193.6" r="5.0" fill="#1F4E19"/><circle cx="421.8" cy="187.7" r="2.8" fill="#2C6624"/><circle cx="381.9" cy="183.8" r="4.7" fill="#2C6624"/><circle cx="367.1" cy="197.7" r="6.5" fill="#56A043"/><circle cx="266.9" cy="197.2" r="4.2" fill="#1F4E19"/><circle cx="385.8" cy="217.7" r="4.2" fill="#3F8A34"/><circle cx="424.3" cy="182.4" r="4.8" fill="#2C6624"/><circle cx="296.8" cy="171.2" r="4.2" fill="#1F4E19"/><circle cx="434.5" cy="209.9" r="2.9" fill="#2C6624"/><circle cx="243.2" cy="189.0" r="3.8" fill="#1F4E19"/><circle cx="375.7" cy="207.1" r="4.8" fill="#2C6624"/><circle cx="414.7" cy="180.3" r="2.7" fill="#2C6624"/><circle cx="236.6" cy="215.3" r="4.0" fill="#56A043"/><circle cx="241.3" cy="205.4" r="4.0" fill="#1F4E19"/><circle cx="375.4" cy="161.1" r="4.6" fill="#2C6624"/><circle cx="224.2" cy="218.5" r="2.7" fill="#56A043"/><circle cx="303.9" cy="200.0" r="3.6" fill="#56A043"/><circle cx="212.2" cy="202.7" r="6.2" fill="#3F8A34"/><circle cx="236.8" cy="184.2" r="2.9" fill="#1F4E19"/><circle cx="318.5" cy="176.5" r="4.3" fill="#56A043"/><circle cx="399.1" cy="211.4" r="5.7" fill="#56A043"/><circle cx="262.2" cy="213.3" r="5.6" fill="#3F8A34"/><circle cx="349.6" cy="187.4" r="3.4" fill="#56A043"/><circle cx="298.4" cy="171.3" r="6.3" fill="#2C6624"/><circle cx="280.6" cy="208.2" r="3.6" fill="#3F8A34"/><circle cx="364.5" cy="218.6" r="2.8" fill="#1F4E19"/><circle cx="437.6" cy="216.1" r="4.4" fill="#56A043"/><circle cx="285.0" cy="162.8" r="3.5" fill="#2C6624"/><circle cx="244.7" cy="201.5" r="2.8" fill="#3F8A34"/><circle cx="364.0" cy="185.2" r="6.4" fill="#56A043"/><circle cx="327.6" cy="212.9" r="5.5" fill="#2C6624"/><circle cx="369.2" cy="161.0" r="3.8" fill="#56A043"/><circle cx="355.8" cy="200.4" r="4.8" fill="#56A043"/><circle cx="351.8" cy="165.9" r="6.5" fill="#1F4E19"/><circle cx="379.5" cy="207.7" r="3.5" fill="#56A043"/><circle cx="408.5" cy="177.3" r="2.7" fill="#56A043"/><circle cx="203.2" cy="212.2" r="2.6" fill="#56A043"/><circle cx="343.7" cy="189.6" r="3.8" fill="#56A043"/><circle cx="385.4" cy="213.3" r="4.8" fill="#3F8A34"/><circle cx="413.1" cy="196.8" r="3.5" fill="#3F8A34"/><circle cx="279.0" cy="199.2" r="3.0" fill="#2C6624"/>
<path d="M170 214 A 160 30 0 0 0 490 214" fill="none" stroke="#3E7A2C" stroke-width="8"/>
<g transform="translate(500 322) rotate(34) scale(0.8)"><path d="M0 0 C 11 -22, 12 -62, 0 -86 C -12 -62, -11 -22, 0 0 Z" transform="rotate(-64)" fill="url(#feuille)"/><path d="M0 -4 L 0 -78" transform="rotate(-64)" stroke="#2E6A22" stroke-width="2" opacity=".5"/><path d="M0 0 C 11 -22, 12 -62, 0 -86 C -12 -62, -11 -22, 0 0 Z" transform="rotate(-32)" fill="url(#feuille)"/><path d="M0 -4 L 0 -78" transform="rotate(-32)" stroke="#2E6A22" stroke-width="2" opacity=".5"/><path d="M0 0 C 11 -22, 12 -62, 0 -86 C -12 -62, -11 -22, 0 0 Z" transform="rotate(0)" fill="url(#feuille)"/><path d="M0 -4 L 0 -78" transform="rotate(0)" stroke="#2E6A22" stroke-width="2" opacity=".5"/><path d="M0 0 C 11 -22, 12 -62, 0 -86 C -12 -62, -11 -22, 0 0 Z" transform="rotate(32)" fill="url(#feuille)"/><path d="M0 -4 L 0 -78" transform="rotate(32)" stroke="#2E6A22" stroke-width="2" opacity=".5"/><path d="M0 0 C 11 -22, 12 -62, 0 -86 C -12 -62, -11 -22, 0 0 Z" transform="rotate(64)" fill="url(#feuille)"/><path d="M0 -4 L 0 -78" transform="rotate(64)" stroke="#2E6A22" stroke-width="2" opacity=".5"/><path d="M0 0 L 0 46" stroke="#6B8E3A" stroke-width="5" stroke-linecap="round"/></g>
</svg>
